<?xml version="1.0" encoding="UTF-8" standalone="no"?>
<svg xmlns:dc="http://purl.org/dc/elements/1.1/" xmlns:cc="http://creativecommons.org/ns#"
  xmlns:rdf="http://www.w3.org/1999/02/22-rdf-syntax-ns#" xmlns:svg="http://www.w3.org/2000/svg"
  xmlns="http://www.w3.org/2000/svg" viewBox="0 0 1706.96 1024.1787" height="1024.1787" width="1706.96"
  xml:space="preserve" id="svg2" version="1.1">
  <metadata id="metadata8">
    <rdf:RDF>
      <cc:Work rdf:about="">
        <dc:format>image/svg+xml</dc:format>
        <dc:type rdf:resource="http://purl.org/dc/dcmitype/StillImage" />
      </cc:Work>
    </rdf:RDF>
  </metadata>
  <defs id="defs6">
    <linearGradient id="linearGradient28" spreadMethod="pad"
      gradientTransform="matrix(51.167206,121.24189,121.24189,-51.167206,601.35455,398.48053)"
      gradientUnits="userSpaceOnUse" y2="0" x2="1" y1="0" x1="0">
      <stop id="stop24" offset="0" style="stop-opacity:1;stop-color:#ffffff" />
      <stop id="stop26" offset="1" style="stop-opacity:1;stop-color:#4576ba" />
    </linearGradient>
    <clipPath id="clipPath38" clipPathUnits="userSpaceOnUse">
      <path id="path36" d="M 0,768.134 H 1280.221 V 0 H 0 Z" />
    </clipPath>
    <linearGradient id="linearGradient180" spreadMethod="pad"
      gradientTransform="matrix(0,163.74629,163.74629,0,641.19482,379.19083)" gradientUnits="userSpaceOnUse" y2="0"
      x2="1" y1="0" x1="0">
      <stop id="stop168" offset="0" style="stop-opacity:1;stop-color:#375883" />
      <stop id="stop170" offset="0.10198" style="stop-opacity:1;stop-color:#375883" />
      <stop id="stop172" offset="0.2775582" style="stop-opacity:1;stop-color:#2c3d7e" />
      <stop id="stop174" offset="0.285849" style="stop-opacity:1;stop-color:#2c3d7e" />
      <stop id="stop176" offset="0.89578614" style="stop-opacity:1;stop-color:#9fc6dd" />
      <stop id="stop178" offset="1" style="stop-opacity:1;stop-color:#9fc6dd" />
    </linearGradient>
    <linearGradient id="linearGradient208" spreadMethod="pad"
      gradientTransform="matrix(0,163.74629,163.74629,0,593.39435,379.34698)" gradientUnits="userSpaceOnUse" y2="0"
      x2="1" y1="0" x1="0">
      <stop id="stop196" offset="0" style="stop-opacity:1;stop-color:#375883" />
      <stop id="stop198" offset="0.10198" style="stop-opacity:1;stop-color:#375883" />
      <stop id="stop200" offset="0.2775582" style="stop-opacity:1;stop-color:#2c3d7e" />
      <stop id="stop202" offset="0.285849" style="stop-opacity:1;stop-color:#2c3d7e" />
      <stop id="stop204" offset="0.89578614" style="stop-opacity:1;stop-color:#9fc6dd" />
      <stop id="stop206" offset="1" style="stop-opacity:1;stop-color:#9fc6dd" />
    </linearGradient>
  </defs>
  <g transform="matrix(2.6666666,0,0,-2.6666666,-853.48,1616.268)" id="g10">

    <g id="g12">
      <g id="g14">
        <g id="g20">
          <g id="g22">
            <path id="path30" style="fill:url(#linearGradient28);stroke:none"
              d="m 640.102,535.888 c -0.192,-0.019 -0.498,-0.817 -1.629,-1.328 v 0 c -1.016,-0.459 -0.94,-0.427 -1.972,-0.694 v 0 c -1.547,-0.398 -2.692,-1.542 -1.871,-1.434 v 0 c 22.64,2.973 82.946,1.919 82.946,1.919 v 0 0.664 1.764 0.667 c 0,0 -9.662,0.165 -22.611,0.165 v 0 c -17.519,0 -41.059,-0.302 -54.863,-1.723 m -36.026,-3.405 c -6.238,-0.785 -19.444,-1.065 -29.857,-8.026 v 0 c -9.325,-6.234 -9.718,-15.042 -9.718,-19.294 v 0 c 0,-4.03 17.599,-13.017 19.864,-14.327 v 0 c 3.662,-2.119 6.102,-4.056 9.117,-6.222 v 0 20.549 c 0,0 -3.949,3.261 -3.865,7.822 v 0 c 0.288,15.783 36.31,18.955 36.818,18.978 v 0 c 0.008,0 0.008,0.001 0.015,0.002 v 0 c 1.724,0.182 6.129,1.019 7.426,1.981 v 0 c 1.301,0.963 0.159,0.996 -2.212,1.076 v 0 c -6.926,-0.358 -20.98,-1.707 -27.588,-2.539 m 13.368,-9.361 c -4.864,-1.45 -11.622,-4.956 -12.65,-9.307 v 0 c -0.557,-2.354 -2.308,-7.2 13.494,-17.744 v 0 c 21.621,-14.429 27.871,-20.799 38.671,-32.747 v 0 c 2.715,-3.002 10.543,-11.595 12.851,-16.627 v 0 c 2.132,-4.648 8.384,5.101 0.086,15.06 v 0 c -2.146,2.577 -8.246,8.897 -10.877,11.143 v 0 c -6.821,5.824 -16.536,11.908 -22.768,18.171 v 0 c -4.614,4.638 -7.496,9.776 -7.3,15.791 v 0 c 0.197,6.056 6.317,9.612 12.546,12.763 v 0 c 6.23,3.152 15.034,4.568 22.227,5.57 v 0 c 19.389,2.702 53.852,2.774 53.852,2.774 v 0 0.494 1.804 0.39 c 0,0 -1.872,0.021 -5.13,0.021 v 0 c -16.971,0 -71.541,-0.563 -95.002,-7.556 m 70.427,2.156 c -1.906,-0.111 -5.72,-0.318 -7.623,-0.463 v 0 c -5.795,-0.441 -22.532,-1.104 -32.53,-5.667 v 0 c -12.819,-5.851 -13.449,-9.897 -12.223,-15.26 v 0 c 1.143,-5.002 7.974,-12.38 15.332,-17.85 v 0 c 0.394,-0.294 -3.147,4.869 -3.422,5.276 v 0 c -3.06,4.527 -7.882,10.23 -4.012,16.836 v 0 c 4.755,8.117 16.449,11.462 33.84,13.642 v 0 c 1.407,0.177 4.237,0.366 5.652,0.447 v 0 c 11.8,0.675 34.691,1.321 34.691,1.321 v 0 0.667 1.297 0.431 c 0,0 -26.471,-0.49 -29.705,-0.677 M 651.06,488.543 c 1.168,-1.993 2.311,-4.203 2.713,-4.549 v 0 c 9.634,-8.322 23.059,-21.163 24.714,-29.643 v 0 c 0.557,-2.845 -0.149,-6.271 -1.08,-8.112 v 0 c -0.851,-1.681 -4.372,-3.489 -6.553,-3.018 v 0 c -0.291,0.062 -0.552,-0.164 -0.527,-0.461 v 0 c 1.706,-20.298 -6.239,-38.931 -21.835,-54.612 v 0 c -0.277,-0.279 -0.086,-0.906 0.306,-0.906 v 0 h 17.874 c 0,0 25.626,4.606 25.626,37.09 v 0 c 0,14.054 -6.929,31.371 -16.83,43.103 v 0 c -4.712,5.582 -15.169,14.192 -23.741,21.666 v 0 c -0.091,0.079 -0.191,0.113 -0.287,0.113 v 0 c -0.305,0 -0.573,-0.342 -0.38,-0.671 M 623.058,455.27 c 2.389,-12.386 -3.891,-27.624 -12.754,-37.782 v 0 c -8.855,-10.149 -20.318,-17.714 -32.107,-25.537 v 0 c -0.02,-0.014 -0.04,-0.024 -0.062,-0.034 v 0 c -0.44,-0.199 -5.36,-2.406 -9.456,-3.66 v 0 c -0.484,-0.148 -0.371,-0.859 0.135,-0.859 v 0 h 14.567 c 0.069,0 0.138,0.016 0.199,0.047 v 0 c 12.092,6.034 20.315,11.71 29.999,20.234 v 0 c 5.106,4.495 11.387,11.209 14.752,16.721 v 0 c 5.148,8.435 8.342,16.627 6.19,25.915 v 0 l -13.861,11.548 c 1.333,-1.936 1.973,-4.393 2.398,-6.593 m 8.924,-33.243 c -4.741,-6.441 -7.521,-9.959 -10.006,-12.019 v 0 c -15.64,-12.961 -27.108,-22.61 -27.108,-22.61 v 0 h 1.212 16.22 c 18.585,17.717 22.3,29.62 24.837,38.819 v 0 c 1.036,3.754 1.291,5.175 0.998,5.176 v 0 c -0.566,0 -3.185,-5.334 -6.153,-9.366" />
          </g>
        </g>
      </g>
    </g>
    <g id="g32">
      <g clip-path="url(#clipPath38)" id="g34">
        <g transform="translate(487.7104,340.3301)" id="g40">
          <path id="path42" style="fill:#232323;fill-opacity:1;fill-rule:nonzero;stroke:none"
            d="M 0,0 C 2.45,1.65 5.101,4.201 7.351,6.602 H -12.2 v 5.75 h 24.651 l 1.25,0.299 4.101,-3.1 C 14.602,5.852 10.401,1.65 6.15,-1.549 V -17.25 c 0,-3.101 -0.649,-4.5 -2.95,-5.301 -2.2,-0.8 -5.25,-0.9 -9.4,-0.849 -0.3,1.65 -1.15,3.949 -1.9,5.5 2.6,-0.151 6,-0.151 6.85,-0.151 0.95,0 1.25,0.2 1.25,0.95 z m -19.001,2.301 c -1.35,2.45 -4.5,6.25 -6.9,9 l 4.501,3.051 c 2.449,-2.6 5.7,-6.201 7.2,-8.551 z m 3.051,-23.551 c 0.8,-0.551 1.75,-1.201 2.899,-1.9 3.45,-2.051 8.101,-2.351 13.852,-2.351 5.4,0 13.551,0.5 18.701,1.2 -0.75,-1.65 -1.75,-4.75 -1.801,-6.551 -3.649,-0.199 -11.85,-0.549 -17.15,-0.549 -6.551,0 -10.801,0.6 -14.451,2.7 -2.3,1.25 -4.151,2.95 -5.201,2.95 -1.35,0 -3.2,-3.55 -4.7,-6.55 l -4.301,6.25 c 2.101,2.35 4.201,4.151 6.151,5.151 v 13.5 h -5.5 v 5.751 h 11.501 z" />
        </g>
        <g transform="translate(521.2095,337.7813)" id="g44">
          <path id="path46" style="fill:#232323;fill-opacity:1;fill-rule:nonzero;stroke:none"
            d="m 0,0 h -5.95 v 10.85 h 18.701 c -0.4,1.65 -1.35,3.9 -2.25,5.65 l 5.9,1.351 c 1.1,-1.901 2.3,-4.451 2.701,-6.101 l -3.651,-0.9 H 35.202 V 0 h -6.2 V 5 H 0 Z M 36.253,-8.251 H 17.701 v -13.951 c 0,-3.3 -0.7,-5.05 -3.099,-5.95 -2.401,-0.951 -5.901,-1.051 -10.402,-1 -0.25,1.799 -1.25,4.55 -2.099,6.3 3.2,-0.15 7,-0.15 8.1,-0.15 1,0.05 1.3,0.199 1.3,0.95 V -8.251 H -6.95 v 5.65 h 43.203 z" />
        </g>
        <g transform="translate(592.7104,340.3301)" id="g48">
          <path id="path50" style="fill:#232323;fill-opacity:1;fill-rule:nonzero;stroke:none"
            d="M 0,0 C 2.45,1.65 5.101,4.201 7.351,6.602 H -12.2 v 5.75 h 24.651 l 1.25,0.299 4.101,-3.1 C 14.602,5.852 10.401,1.65 6.15,-1.549 V -17.25 c 0,-3.101 -0.649,-4.5 -2.95,-5.301 -2.2,-0.8 -5.25,-0.9 -9.4,-0.849 -0.3,1.65 -1.15,3.949 -1.9,5.5 2.6,-0.151 6,-0.151 6.85,-0.151 0.95,0 1.25,0.2 1.25,0.95 z m -19.001,2.301 c -1.35,2.45 -4.5,6.25 -6.9,9 l 4.501,3.051 c 2.449,-2.6 5.7,-6.201 7.2,-8.551 z m 3.051,-23.551 c 0.8,-0.551 1.75,-1.201 2.899,-1.9 3.45,-2.051 8.101,-2.351 13.852,-2.351 5.4,0 13.551,0.5 18.701,1.2 -0.75,-1.65 -1.75,-4.75 -1.801,-6.551 -3.649,-0.199 -11.85,-0.549 -17.15,-0.549 -6.551,0 -10.801,0.6 -14.451,2.7 -2.3,1.25 -4.151,2.95 -5.201,2.95 -1.35,0 -3.2,-3.55 -4.7,-6.55 l -4.301,6.25 c 2.101,2.35 4.201,4.151 6.151,5.151 v 13.5 h -5.5 v 5.751 h 11.501 z" />
        </g>
        <path id="path52" style="fill:#232323;fill-opacity:1;fill-rule:nonzero;stroke:none"
          d="m 639.111,328.03 h 5.7 v 7.851 h -5.7 z m 0,-5.3 v -3.3 h -5.351 v 21.751 h 16.501 V 322.73 Z m 25.051,23.75 h -3.65 v -30.451 c 0,-3.65 -0.85,-5.4 -3.2,-6.4 -2.45,-1 -6.15,-1.051 -11.701,-1.051 -0.3,1.751 -1.401,4.602 -2.3,6.251 3.95,-0.25 8.4,-0.2 9.601,-0.2 1.2,0.051 1.649,0.4 1.649,1.5 V 346.48 H 631.66 v 2.651 l -3.4,-4.6 c -2.001,1.5 -6.201,4 -9.1,5.7 l 3.399,4.25 c 2.801,-1.399 6.951,-3.649 9.101,-5.1 v 2.9 h 32.502 z m -45.903,-33.401 c 2.7,3.75 6.5,9.95 9.45,15.751 l 4.401,-4 c -2.651,-5.201 -5.8,-10.9 -8.801,-15.751 z m 8,18.001 c -2.05,1.45 -6.349,3.801 -9.35,5.4 l 3.251,4.401 c 2.75,-1.35 7.2,-3.5 9.4,-4.851 z" />
        <g transform="translate(697.5605,320.5801)" id="g54">
          <path id="path56" style="fill:#232323;fill-opacity:1;fill-rule:nonzero;stroke:none"
            d="m 0,0 c 6.5,-1.801 13.551,-4.751 17.601,-7.102 l -3.651,-4.75 c -3.8,2.601 -10.35,5.551 -16.7,7.501 z m -10.451,13.9 c -1.399,1.701 -4.549,4.051 -7.099,5.551 l 3.45,3.85 c 2.55,-1.25 5.85,-3.401 7.4,-5.151 z M -19.25,16 c 2.599,-1.25 5.95,-3.3 7.549,-4.949 L -15.25,6.65 C -16.75,8.3 -20,10.551 -22.651,12 Z m -0.101,2.5 h -5.95 V 29.901 H -7 c -0.5,1.201 -1.1,2.451 -1.701,3.451 l 5.951,1.849 c 1,-1.599 2.1,-3.55 2.85,-5.3 H 16.951 V 18.5 H 10.7 v 5.852 h -30.051 z m 17,-17.5 c -3,-6.001 -8.699,-10.352 -19.7,-13.002 -0.5,1.501 -2,3.801 -3.3,5.102 8.101,1.75 12.9,4.349 15.751,7.9 H -25.751 V 6 H -6.95 c 1.5,4.35 1.649,9.75 1.849,16.201 H 1.2 C 1,16.051 0.7,10.65 -0.55,6 H 17.551 V 1 Z" />
        </g>
        <g transform="translate(754.3604,319.8789)" id="g58">
          <path id="path60" style="fill:#232323;fill-opacity:1;fill-rule:nonzero;stroke:none"
            d="m 0,0 c -0.25,3.201 -1.1,8.102 -1.85,11.801 l 4.5,0.65 c 0.901,-3.75 1.8,-8.5 2.101,-11.75 z M 6.951,20.052 C 4.4,22.302 2,24.702 -0.1,27.152 c -1.85,-2.599 -4,-4.95 -6.2,-7.1 z M -7.851,-1.399 c -0.349,3.2 -1.549,8.1 -2.599,11.8 l 4.5,1.201 C -4.7,7.9 -3.55,3.101 -3.05,-0.049 Z m 22.152,12.401 c -1.8,-5.051 -4,-10.901 -6.05,-15.201 h 5.95 v -5 H -11.7 v 5 H 3.25 c 2.101,4.55 4.501,11.301 5.65,16.35 z m -21.402,8.3 c -1.649,-1.45 -3.25,-2.75 -4.95,-3.901 -0.649,1.151 -2.399,3.651 -3.399,4.8 -0.2,-2.899 -0.45,-5.699 -0.7,-7.949 h 3.849 c 0,0 -0.05,-1.5 -0.099,-2.15 -0.601,-12.401 -1.25,-17.301 -2.75,-19.002 -1.051,-1.3 -2.201,-1.7 -3.801,-1.9 -1.3,-0.15 -3.7,-0.15 -6.1,-0.05 -0.051,1.45 -0.6,3.401 -1.45,4.75 2.2,-0.2 4.3,-0.25 5.2,-0.25 0.85,0 1.25,0.1 1.75,0.6 0.901,1 1.5,4.601 1.95,13.352 h -12.901 c 0.601,4.5 1.101,11.9 1.301,17.55 l 5.05,-0.3 c -0.201,-3.95 -0.55,-8.651 -0.9,-12.651 h 3.9 c 0.55,4.451 1,10.602 1.3,16.301 h -11.3 v 5 h 16.501 c -0.201,-4.1 -0.5,-8.9 -0.851,-13.301 C -9.65,23.752 -4.1,29.553 -1,35.902 l 5.15,-1.799 c -0.399,-0.8 -0.849,-1.601 -1.299,-2.4 3.349,-3.801 8.25,-7.9 12.7,-10.301 -1,-1.5 -2.15,-4.25 -2.699,-5.9 -1.501,1 -3.001,2.1 -4.551,3.4 v -3.85 H -7.101 Z m -12,-19.652 c -4.251,-1 -8.65,-2.049 -12.35,-2.9 l -0.95,4.601 c 3.349,0.6 8.049,1.65 12.85,2.7 z" />
        </g>
        <g transform="translate(805.7607,333.7803)" id="g62">
          <path id="path64" style="fill:#232323;fill-opacity:1;fill-rule:nonzero;stroke:none"
            d="m 0,0 c -0.9,0.8 -1.8,1.5 -2.601,2.2 l 2.451,1.651 h -8.651 c -1.8,-1.701 -3.8,-3.301 -5.8,-4.801 z M -23.502,8.95 H 8.351 v 3.051 h -31.853 z m -0.25,-1.099 h -5.55 v 9.55 h 19.201 c -0.4,1.05 -0.85,2.151 -1.35,3 l 5.801,1.701 c 0.849,-1.451 1.7,-3.201 2.25,-4.701 H 14.4 V 7.851 H 9.101 v -4 H 3.2 C 6.25,1.4 9.7,-1.7 11.551,-3.95 l -4.7,-3.2 C 6.2,-6.251 5.3,-5.15 4.2,-4 c -22.351,-1.8 -25.052,-2.001 -27.052,-2.8 -0.299,1.1 -1.099,3.75 -1.7,5.151 1.101,0.149 2.2,0.798 3.551,1.798 0.8,0.551 2.6,1.901 4.6,3.702 h -7.351 z m 38.603,-26.552 v -5.25 h -44.303 v 5.25 h 18.901 v 4.3 H -25.102 V -9.3 h 14.551 v 3.8 h 6.101 v -3.8 h 15.301 v -5.101 H -4.45 v -4.3 z" />
        </g>
        <g transform="translate(464.3491,299.1534)" id="g66">
          <path id="path68" style="fill:#232323;fill-opacity:1;fill-rule:nonzero;stroke:none"
            d="m 0,0 h 3.257 v -11.092 h 6.6 v -2.232 H 0 Z" />
        </g>
        <path id="path70" style="fill:#232323;fill-opacity:1;fill-rule:nonzero;stroke:none"
          d="m 477.263,299.153 h 3.257 v -13.324 h -3.257 z" />
        <g transform="translate(491.6753,291.3203)" id="g72">
          <path id="path74" style="fill:#232323;fill-opacity:1;fill-rule:nonzero;stroke:none"
            d="M 0,0 -0.484,1.459 C -0.99,2.846 -1.431,4.376 -1.915,5.816 H -2.003 C -2.421,4.357 -2.904,2.846 -3.389,1.459 L -3.873,0 Z m 0.704,-2.07 h -5.281 l -1.144,-3.421 h -3.3 L -3.807,7.833 H 0.021 L 5.259,-5.491 H 1.848 Z" />
        </g>
        <g transform="translate(509.231,292.545)" id="g76">
          <path id="path78" style="fill:#232323;fill-opacity:1;fill-rule:nonzero;stroke:none"
            d="m 0,0 c 0,2.863 -1.54,4.574 -3.96,4.574 -2.421,0 -3.961,-1.711 -3.961,-4.574 0,-2.845 1.54,-4.663 3.961,-4.663 C -1.54,-4.663 0,-2.845 0,0 m -11.243,0 c 0,4.34 2.97,6.86 7.283,6.86 4.313,0 7.282,-2.539 7.282,-6.86 0,-4.321 -2.969,-6.968 -7.282,-6.968 -4.313,0 -7.283,2.647 -7.283,6.968" />
        </g>
        <g transform="translate(515.9604,299.1534)" id="g80">
          <path id="path82" style="fill:#232323;fill-opacity:1;fill-rule:nonzero;stroke:none"
            d="m 0,0 h 3.323 l 4.731,-7.095 1.628,-2.881 h 0.11 C 9.615,-8.589 9.374,-6.824 9.374,-5.312 V 0 h 3.08 V -13.324 H 9.153 l -4.708,7.13 -1.65,2.863 h -0.11 c 0.154,-1.44 0.396,-3.115 0.396,-4.646 v -5.347 H 0 Z" />
        </g>
        <path id="path84" style="fill:#232323;fill-opacity:1;fill-rule:nonzero;stroke:none"
          d="m 532.658,299.153 h 3.257 v -13.324 h -3.257 z" />
        <g transform="translate(540.1382,299.1534)" id="g86">
          <path id="path88" style="fill:#232323;fill-opacity:1;fill-rule:nonzero;stroke:none"
            d="m 0,0 h 3.323 l 4.731,-7.095 1.628,-2.881 h 0.11 C 9.615,-8.589 9.374,-6.824 9.374,-5.312 V 0 h 3.08 V -13.324 H 9.153 l -4.708,7.13 -1.65,2.863 h -0.11 c 0.154,-1.44 0.396,-3.115 0.396,-4.646 v -5.347 H 0 Z" />
        </g>
        <g transform="translate(556.022,292.4375)" id="g90">
          <path id="path92" style="fill:#232323;fill-opacity:1;fill-rule:nonzero;stroke:none"
            d="m 0,0 c 0,4.393 3.477,6.968 7.811,6.968 2.354,0 3.982,-0.828 5.039,-1.71 L 11.111,3.564 C 10.319,4.195 9.396,4.682 7.921,4.682 5.215,4.682 3.322,2.953 3.322,0.09 c 0,-2.899 1.628,-4.646 4.819,-4.646 0.792,0 1.585,0.18 2.047,0.504 v 2.629 H 7.305 v 2.179 h 5.787 V -5.258 C 11.991,-6.141 10.077,-6.86 7.811,-6.86 3.366,-6.86 0,-4.447 0,0" />
        </g>
        <g transform="translate(583.2573,299.1534)" id="g94">
          <path id="path96" style="fill:#232323;fill-opacity:1;fill-rule:nonzero;stroke:none"
            d="m 0,0 h 3.257 v -11.092 h 6.6 v -2.232 H 0 Z" />
        </g>
        <path id="path98" style="fill:#232323;fill-opacity:1;fill-rule:nonzero;stroke:none"
          d="m 596.171,299.153 h 3.257 v -13.324 h -3.257 z" />
        <g transform="translate(610.5825,291.3203)" id="g100">
          <path id="path102" style="fill:#232323;fill-opacity:1;fill-rule:nonzero;stroke:none"
            d="M 0,0 -0.484,1.459 C -0.99,2.846 -1.431,4.376 -1.915,5.816 H -2.003 C -2.421,4.357 -2.904,2.846 -3.389,1.459 L -3.873,0 Z m 0.704,-2.07 h -5.281 l -1.144,-3.421 h -3.3 L -3.807,7.833 H 0.021 L 5.259,-5.491 H 1.848 Z" />
        </g>
        <g transform="translate(628.1392,292.545)" id="g104">
          <path id="path106" style="fill:#232323;fill-opacity:1;fill-rule:nonzero;stroke:none"
            d="m 0,0 c 0,2.863 -1.54,4.574 -3.96,4.574 -2.421,0 -3.961,-1.711 -3.961,-4.574 0,-2.845 1.54,-4.663 3.961,-4.663 C -1.54,-4.663 0,-2.845 0,0 m -11.243,0 c 0,4.34 2.97,6.86 7.283,6.86 4.313,0 7.282,-2.539 7.282,-6.86 0,-4.321 -2.969,-6.968 -7.282,-6.968 -4.313,0 -7.283,2.647 -7.283,6.968" />
        </g>
        <g transform="translate(634.8687,299.1534)" id="g108">
          <path id="path110" style="fill:#232323;fill-opacity:1;fill-rule:nonzero;stroke:none"
            d="M 0,0 H 3.257 V -5.239 H 9.418 V 0 h 3.234 V -13.324 H 9.418 v 5.762 H 3.257 v -5.762 H 0 Z" />
        </g>
        <g transform="translate(651.7417,299.1534)" id="g112">
          <path id="path114" style="fill:#232323;fill-opacity:1;fill-rule:nonzero;stroke:none"
            d="M 0,0 H 9.99 V -2.215 H 3.257 V -5.294 H 8.978 V -7.526 H 3.257 v -3.566 h 6.974 v -2.232 l -10.231,0 z" />
        </g>
        <g transform="translate(675.9204,299.1534)" id="g116">
          <path id="path118" style="fill:#232323;fill-opacity:1;fill-rule:nonzero;stroke:none"
            d="m 0,0 h 3.257 v -11.092 h 6.6 v -2.232 H 0 Z" />
        </g>
        <g transform="translate(695.6553,291.3203)" id="g120">
          <path id="path122" style="fill:#232323;fill-opacity:1;fill-rule:nonzero;stroke:none"
            d="M 0,0 -0.484,1.459 C -0.99,2.846 -1.431,4.376 -1.915,5.816 H -2.003 C -2.421,4.357 -2.904,2.846 -3.389,1.459 L -3.873,0 Z M 0.704,-2.07 H -4.577 L -5.72,-5.491 H -9.021 L -3.807,7.833 H 0.021 L 5.259,-5.491 H 1.848 Z" />
        </g>
        <g transform="translate(708.5693,287.8819)" id="g124">
          <path id="path126" style="fill:#232323;fill-opacity:1;fill-rule:nonzero;stroke:none"
            d="M 0,0 C 2.222,0 3.433,0.647 3.433,2.034 3.433,3.331 2.244,3.871 0,3.871 H -2.267 V 0 Z m -0.374,5.852 c 2.068,0 2.97,0.684 2.97,1.747 0,1.17 -0.968,1.638 -2.926,1.638 H -2.267 V 5.852 Z m -5.149,5.419 h 5.39 c 3.345,0 5.898,-0.792 5.898,-3.277 0,-1.223 -0.836,-2.484 -2.223,-2.881 v -0.09 c 1.761,-0.342 3.059,-1.35 3.059,-3.151 0,-2.683 -2.729,-3.925 -6.315,-3.925 h -5.809 z" />
        </g>
        <g transform="translate(728.6777,292.545)" id="g128">
          <path id="path130" style="fill:#232323;fill-opacity:1;fill-rule:nonzero;stroke:none"
            d="m 0,0 c 0,2.863 -1.54,4.574 -3.96,4.574 -2.421,0 -3.961,-1.711 -3.961,-4.574 0,-2.845 1.54,-4.663 3.961,-4.663 C -1.54,-4.663 0,-2.845 0,0 m -11.243,0 c 0,4.34 2.97,6.86 7.283,6.86 4.313,0 7.282,-2.539 7.282,-6.86 0,-4.321 -2.969,-6.968 -7.282,-6.968 -4.313,0 -7.283,2.647 -7.283,6.968" />
        </g>
        <g transform="translate(738.6641,292.9766)" id="g132">
          <path id="path134" style="fill:#232323;fill-opacity:1;fill-rule:nonzero;stroke:none"
            d="m 0,0 h 2.112 c 2.09,0 3.235,0.721 3.235,2.144 0,1.44 -1.145,1.926 -3.235,1.926 H 0 Z M 5.61,-7.147 2.267,-2.105 H 0 V -7.147 H -3.257 V 6.177 H 2.42 c 3.411,0 6.117,-0.973 6.117,-4.033 0,-1.999 -1.232,-3.242 -3.102,-3.835 l 3.806,-5.456 z" />
        </g>
        <g transform="translate(757.3867,291.3203)" id="g136">
          <path id="path138" style="fill:#232323;fill-opacity:1;fill-rule:nonzero;stroke:none"
            d="M 0,0 -0.484,1.459 C -0.99,2.846 -1.431,4.376 -1.915,5.816 H -2.003 C -2.421,4.357 -2.904,2.846 -3.389,1.459 L -3.873,0 Z m 0.704,-2.07 h -5.281 l -1.144,-3.421 h -3.3 L -3.807,7.833 H 0.021 L 5.259,-5.491 H 1.848 Z" />
        </g>
        <g transform="translate(766.3184,296.9385)" id="g140">
          <path id="path142" style="fill:#232323;fill-opacity:1;fill-rule:nonzero;stroke:none"
            d="M 0,0 H -4.576 V 2.215 H 7.878 V 0 H 3.257 V -11.109 H 0 Z" />
        </g>
        <g transform="translate(786.8008,292.545)" id="g144">
          <path id="path146" style="fill:#232323;fill-opacity:1;fill-rule:nonzero;stroke:none"
            d="m 0,0 c 0,2.863 -1.54,4.574 -3.96,4.574 -2.421,0 -3.961,-1.711 -3.961,-4.574 0,-2.845 1.54,-4.663 3.961,-4.663 C -1.54,-4.663 0,-2.845 0,0 m -11.243,0 c 0,4.34 2.97,6.86 7.283,6.86 4.313,0 7.282,-2.539 7.282,-6.86 0,-4.321 -2.969,-6.968 -7.282,-6.968 -4.313,0 -7.283,2.647 -7.283,6.968" />
        </g>
        <g transform="translate(796.7871,292.9766)" id="g148">
          <path id="path150" style="fill:#232323;fill-opacity:1;fill-rule:nonzero;stroke:none"
            d="m 0,0 h 2.112 c 2.09,0 3.235,0.721 3.235,2.144 0,1.44 -1.145,1.926 -3.235,1.926 H 0 Z M 5.61,-7.147 2.267,-2.105 H 0 V -7.147 H -3.257 V 6.177 H 2.42 c 3.411,0 6.117,-0.973 6.117,-4.033 0,-1.999 -1.232,-3.242 -3.102,-3.835 l 3.806,-5.456 z" />
        </g>
        <g transform="translate(811.2422,290.709)" id="g152">
          <path id="path154" style="fill:#232323;fill-opacity:1;fill-rule:nonzero;stroke:none"
            d="m 0,0 -4.885,8.444 h 3.454 L 0.198,5.203 C 0.66,4.213 1.1,3.276 1.606,2.25 H 1.694 C 2.2,3.276 2.685,4.213 3.146,5.203 L 4.774,8.444 H 8.163 L 3.256,0 V -4.88 H 0 Z" />
        </g>
      </g>
    </g>
    <g id="g156">
      <g id="g158">
        <g id="g164">
          <g id="g166">
            <path id="path182" style="fill:url(#linearGradient180);stroke:none"
              d="m 692.335,505.006 v -31.251 -33.63 -15.544 c 0,-32.472 -25.507,-37.339 -25.507,-37.339 v 0 h 50.904 v 22.61 95.154 z m -98.696,-20.549 46.566,-38.981 46.817,39.149 v 20.248 l -46.817,-39.328 -46.566,39.461 z m -28.983,20.549 v -95.154 -22.61 h 27.461 l 27.094,22.61 h -25.572 -5.258 v 95.154 z" />
          </g>
        </g>
      </g>
    </g>
    <g id="g184">
      <g id="g186">
        <g id="g192">
          <g id="g194">
            <path id="path210" style="fill:url(#linearGradient208);stroke:none"
              d="m 564.656,505.163 v -95.155 -22.61 h 30.367 l 27.109,22.61 h -28.493 -5.258 v 95.155 z" />
          </g>
        </g>
      </g>
    </g>
  </g>
</svg>