<svg id="图层_1" data-name="图层 1" xmlns="http://www.w3.org/2000/svg" xmlns:xlink="http://www.w3.org/1999/xlink" viewBox="0 0 608.65 150.37"><defs><style>.cls-1{fill:#010100;}.cls-2{fill:url(#未命名的渐变_290);}.cls-3{fill:url(#未命名的渐变_221);}.cls-4{fill:url(#未命名的渐变_221-2);}.cls-5{fill:url(#未命名的渐变_290-2);}</style><linearGradient id="未命名的渐变_290" x1="36.85" y1="139.13" x2="88.02" y2="17.89" gradientUnits="userSpaceOnUse"><stop offset="0" stop-color="#fff"/><stop offset="1" stop-color="#3b72b9"/></linearGradient><linearGradient id="未命名的渐变_221" x1="76.69" y1="158.42" x2="76.69" y2="-5.33" gradientUnits="userSpaceOnUse"><stop offset="0.1" stop-color="#29517f"/><stop offset="0.29" stop-color="#17307a"/><stop offset="0.35" stop-color="#243e84"/><stop offset="0.66" stop-color="#6587b3"/><stop offset="0.89" stop-color="#8db4d1"/><stop offset="1" stop-color="#9dc5dc"/></linearGradient><linearGradient id="未命名的渐变_221-2" x1="28.89" y1="158.26" x2="28.89" y2="-5.48" xlink:href="#未命名的渐变_221"/><linearGradient id="未命名的渐变_290-2" x1="126.93" y1="112.87" x2="126.93" y2="112.87" xlink:href="#未命名的渐变_290"/></defs><path class="cls-1" d="M226.13,75.41c.8.55,1.75,1.2,2.9,1.9,3.45,2,8.1,2.35,13.85,2.35a163.92,163.92,0,0,0,18.7-1.2,21.65,21.65,0,0,0-1.8,6.55c-3.65.2-11.85.55-17.15.55-6.55,0-10.8-.6-14.45-2.7-2.3-1.25-4.15-3-5.2-3-1.35,0-3.2,3.55-4.7,6.55L214,80.21a22.83,22.83,0,0,1,6.15-5.15V61.56h-5.5V55.81h11.5Zm-3-23.55a65.78,65.78,0,0,0-6.9-9l4.5-3a72.7,72.7,0,0,1,7.2,8.55Zm19,2.3a47.12,47.12,0,0,0,7.35-6.6H229.88V41.81h24.65l1.25-.3,4.1,3.1a79.63,79.63,0,0,1-11.65,11.1v15.7c0,3.1-.65,4.5-2.95,5.3s-5.25.9-9.4.85a24.73,24.73,0,0,0-1.9-5.5c2.6.15,6,.15,6.85.15s1.25-.2,1.25-.95Z"/><path class="cls-1" d="M311.83,65H293.28v14c0,3.3-.7,5-3.1,6s-5.9,1-10.4,1a25.23,25.23,0,0,0-2.1-6.3c3.2.15,7,.15,8.1.15s1.3-.2,1.3-.95V65H268.63V59.31h43.2Zm-36.25-8.25h-5.95V45.86h18.7a28.88,28.88,0,0,0-2.25-5.65l5.9-1.36a27.8,27.8,0,0,1,2.7,6.11l-3.65.9h19.75V56.71h-6.2v-5h-29Z"/><path class="cls-1" d="M331.13,75.41c.8.55,1.75,1.2,2.9,1.9,3.45,2,8.1,2.35,13.85,2.35a163.92,163.92,0,0,0,18.7-1.2,21.65,21.65,0,0,0-1.8,6.55c-3.65.2-11.85.55-17.15.55-6.55,0-10.8-.6-14.45-2.7-2.3-1.25-4.15-3-5.2-3-1.35,0-3.2,3.55-4.7,6.55L319,80.21a22.83,22.83,0,0,1,6.15-5.15V61.56h-5.5V55.81h11.5Zm-3.05-23.55a65.78,65.78,0,0,0-6.9-9l4.5-3a72.7,72.7,0,0,1,7.2,8.55Zm19,2.3a47.12,47.12,0,0,0,7.35-6.6H334.88V41.81h24.65l1.25-.3,4.1,3.1a79.63,79.63,0,0,1-11.65,11.1v15.7c0,3.1-.65,4.5-3,5.3s-5.25.9-9.4.85a24.73,24.73,0,0,0-1.9-5.5c2.6.15,6,.15,6.85.15s1.25-.2,1.25-.95Z"/><path class="cls-1" d="M380.63,63.41c-2.05-1.45-6.35-3.8-9.35-5.4l3.25-4.4c2.75,1.35,7.2,3.5,9.4,4.85Zm-8,18a133.19,133.19,0,0,0,9.45-15.75l4.4,4c-2.65,5.2-5.8,10.9-8.8,15.75ZM418.53,48h-3.65V78.46c0,3.65-.85,5.4-3.2,6.4s-6.15,1-11.7,1a24.85,24.85,0,0,0-2.3-6.25c3.95.25,8.4.2,9.6.2s1.65-.4,1.65-1.5V48H386V45.36l-3.4,4.6c-2-1.5-6.2-4-9.1-5.7l3.4-4.25a95.68,95.68,0,0,1,9.1,5.1v-2.9h32.5Zm-25,23.75v3.3h-5.35V53.31h16.5V71.76Zm0-13.15v7.85h5.7V58.61Z"/><path class="cls-1" d="M449.58,72.91c-3,6-8.7,10.35-19.7,13a15.89,15.89,0,0,0-3.3-5.1c8.1-1.75,12.9-4.35,15.75-7.9H426.18v-5H445c1.5-4.35,1.65-9.75,1.85-16.2h6.3c-.2,6.15-.5,11.55-1.75,16.2h18.1v5Zm-17-17.5h-5.95V44h18.3a27.7,27.7,0,0,0-1.7-3.45l5.95-1.85A41.5,41.5,0,0,1,452,44h16.85v11.4h-6.25V49.56H432.58Zm.1,2.5a30.86,30.86,0,0,1,7.55,5l-3.55,4.4a33.26,33.26,0,0,0-7.4-5.35Zm8.8,2.1a31.3,31.3,0,0,0-7.1-5.55l3.45-3.85a27.73,27.73,0,0,1,7.4,5.15Zm10.45,13.9a83.86,83.86,0,0,1,17.6,7.1l-3.65,4.75c-3.8-2.6-10.35-5.55-16.7-7.5Z"/><path class="cls-1" d="M489.63,75c-4.25,1-8.65,2.05-12.35,2.9l-.95-4.6c3.35-.6,8.05-1.65,12.85-2.7Zm12-19.65a49.69,49.69,0,0,1-4.95,3.9,40.41,40.41,0,0,0-3.4-4.8c-.2,2.9-.45,5.7-.7,8h3.85s-.05,1.5-.1,2.15c-.6,12.4-1.25,17.3-2.75,19a5.12,5.12,0,0,1-3.8,1.9,47.07,47.07,0,0,1-6.1,0,10.49,10.49,0,0,0-1.45-4.75c2.2.2,4.3.25,5.2.25a2,2,0,0,0,1.75-.6c.9-1,1.5-4.6,1.95-13.35h-12.9c.6-4.5,1.1-11.9,1.3-17.55l5.05.3c-.2,4-.55,8.65-.9,12.65h3.9c.55-4.45,1-10.6,1.3-16.3h-11.3v-5h16.5c-.2,4.1-.5,8.9-.85,13.3a39.57,39.57,0,0,0,14.5-15.7l5.15,1.8c-.4.8-.85,1.6-1.3,2.39a50.22,50.22,0,0,0,12.7,10.31,29.84,29.84,0,0,0-2.7,5.9,51.11,51.11,0,0,1-4.55-3.4v3.85h-15.4Zm21.4,8.3c-1.8,5-4,10.9-6,15.2h5.95v5H497v-5h15a94.19,94.19,0,0,0,5.65-16.35ZM500.88,76a84.46,84.46,0,0,0-2.6-11.8l4.5-1.2a80.71,80.71,0,0,1,2.9,11.65Zm14.8-21.45a72.58,72.58,0,0,1-7-7.1,53,53,0,0,1-6.2,7.1Zm-6.95,20a114.1,114.1,0,0,0-1.85-11.8l4.5-.65a94.44,94.44,0,0,1,2.1,11.75Z"/><path class="cls-1" d="M575,79.41v5.25h-44.3V79.41h18.9v-4.3H535V70h14.55v-3.8h6.1V70H571v5.1h-15.3v4.3Zm-38.6-26.55h-5.55V43.31H550a20.35,20.35,0,0,0-1.35-3l5.8-1.71a31.59,31.59,0,0,1,2.25,4.71h17.8v9.55h-5.3v4h-5.9a64.51,64.51,0,0,1,8.35,7.8l-4.7,3.2a30.59,30.59,0,0,0-2.65-3.15c-22.35,1.8-25.05,2-27.05,2.8a51.27,51.27,0,0,0-1.7-5.15,8.2,8.2,0,0,0,3.55-1.8,49.9,49.9,0,0,0,4.6-3.7h-7.35Zm.25-4.15v3h31.85v-3Zm23.5,12c-.9-.8-1.8-1.5-2.6-2.2L560,56.86h-8.65a67.15,67.15,0,0,1-5.8,4.8Z"/><path class="cls-1" d="M180.31,95.39h3.93v13.38h8v2.69H180.31Z"/><path class="cls-1" d="M195.89,95.39h3.93v16.07h-3.93Z"/><path class="cls-1" d="M214.13,107.33h-6.38l-1.38,4.13h-4l6.29-16.07h4.62l6.32,16.07H215.5Zm-.85-2.49-.59-1.76c-.61-1.68-1.14-3.52-1.72-5.26h-.11c-.5,1.76-1.09,3.58-1.67,5.26l-.59,1.76Z"/><path class="cls-1" d="M220.89,103.36c0-5.24,3.58-8.28,8.79-8.28s8.78,3.06,8.78,8.28-3.58,8.4-8.78,8.4S220.89,108.57,220.89,103.36Zm13.57,0c0-3.46-1.86-5.52-4.78-5.52s-4.78,2.06-4.78,5.52,1.86,5.62,4.78,5.62S234.46,106.79,234.46,103.36Z"/><path class="cls-1" d="M242.57,95.39h4l5.71,8.55,2,3.48h.14a45.64,45.64,0,0,1-.51-5.63v-6.4h3.72v16.07h-4l-5.68-8.6-2-3.46h-.14a53.22,53.22,0,0,1,.48,5.61v6.45h-3.72Z"/><path class="cls-1" d="M262.72,95.39h3.93v16.07h-3.93Z"/><path class="cls-1" d="M271.74,95.39h4l5.71,8.55,2,3.48h.14a45.64,45.64,0,0,1-.51-5.63v-6.4h3.72v16.07h-4l-5.68-8.6-2-3.46H275a53.22,53.22,0,0,1,.48,5.61v6.45h-3.72Z"/><path class="cls-1" d="M290.9,103.49c0-5.3,4.2-8.41,9.43-8.41a9.26,9.26,0,0,1,6.08,2.06l-2.1,2a5.75,5.75,0,0,0-3.85-1.35,5.2,5.2,0,0,0-5.55,5.54c0,3.5,2,5.6,5.82,5.6a4.57,4.57,0,0,0,2.46-.6V105.2h-3.47v-2.62h7v7.25a10.46,10.46,0,0,1-6.37,1.93C295,111.76,290.9,108.85,290.9,103.49Z"/><path class="cls-1" d="M323.76,95.39h3.93v13.38h8v2.69H323.76Z"/><path class="cls-1" d="M339.34,95.39h3.93v16.07h-3.93Z"/><path class="cls-1" d="M357.58,107.33h-6.37l-1.38,4.13h-4l6.29-16.07h4.62l6.32,16.07H359Zm-.85-2.49-.59-1.76c-.61-1.68-1.14-3.52-1.72-5.26h-.11c-.5,1.76-1.09,3.58-1.67,5.26l-.59,1.76Z"/><path class="cls-1" d="M364.34,103.36c0-5.24,3.59-8.28,8.79-8.28s8.79,3.06,8.79,8.28-3.59,8.4-8.79,8.4S364.34,108.57,364.34,103.36Zm13.57,0c0-3.46-1.86-5.52-4.78-5.52s-4.78,2.06-4.78,5.52,1.86,5.62,4.78,5.62S377.91,106.79,377.91,103.36Z"/><path class="cls-1" d="M386,95.39H390v6.32h7.43V95.39h3.9v16.07h-3.9v-6.95H390v6.95H386Z"/><path class="cls-1" d="M406.38,95.39h12.05v2.67h-8.12v3.71h6.9v2.7h-6.9v4.3h8.42v2.69H406.38Z"/><path class="cls-1" d="M435.55,95.39h3.93v13.38h8v2.69H435.55Z"/><path class="cls-1" d="M460.21,107.33h-6.37l-1.38,4.13h-4l6.29-16.07h4.62l6.31,16.07h-4.11Zm-.85-2.49-.58-1.76c-.61-1.68-1.15-3.52-1.73-5.26h-.11c-.5,1.76-1.08,3.58-1.67,5.26l-.58,1.76Z"/><path class="cls-1" d="M468.28,95.39h6.5c4,0,7.11,1,7.11,4a3.65,3.65,0,0,1-2.68,3.47v.11c2.13.42,3.69,1.63,3.69,3.8,0,3.24-3.29,4.74-7.61,4.74h-7Zm6.21,6.53c2.49,0,3.58-.82,3.58-2.1s-1.17-2-3.53-2h-2.33v4.08Zm.45,7.06c2.68,0,4.14-.78,4.14-2.45s-1.43-2.22-4.14-2.22h-2.73V109Z"/><path class="cls-1" d="M485.64,103.36c0-5.24,3.58-8.28,8.78-8.28s8.79,3.06,8.79,8.28-3.59,8.4-8.79,8.4S485.64,108.57,485.64,103.36Zm13.56,0c0-3.46-1.86-5.52-4.78-5.52s-4.78,2.06-4.78,5.52,1.86,5.62,4.78,5.62S499.2,106.79,499.2,103.36Z"/><path class="cls-1" d="M518,111.46l-4-6.08h-2.73v6.08h-3.93V95.39h6.85c4.11,0,7.38,1.17,7.38,4.86,0,2.41-1.49,3.91-3.75,4.63l4.6,6.58Zm-6.77-8.62h2.55c2.52,0,3.9-.87,3.9-2.59s-1.38-2.32-3.9-2.32h-2.55Z"/><path class="cls-1" d="M534.68,107.33h-6.37l-1.38,4.13h-4l6.29-16.07h4.62l6.32,16.07h-4.12Zm-.85-2.49-.58-1.76c-.61-1.68-1.14-3.52-1.73-5.26h-.1c-.51,1.76-1.09,3.58-1.67,5.26l-.59,1.76Z"/><path class="cls-1" d="M544.61,98.06h-5.52V95.39h15v2.67h-5.57v13.4h-3.93Z"/><path class="cls-1" d="M555.76,103.36c0-5.24,3.58-8.28,8.78-8.28s8.79,3.06,8.79,8.28-3.58,8.4-8.79,8.4S555.76,108.57,555.76,103.36Zm13.56,0c0-3.46-1.86-5.52-4.78-5.52s-4.78,2.06-4.78,5.52,1.86,5.62,4.78,5.62S569.32,106.79,569.32,103.36Z"/><path class="cls-1" d="M588.14,111.46l-4-6.08h-2.73v6.08h-3.93V95.39h6.85c4.11,0,7.38,1.17,7.38,4.86,0,2.41-1.49,3.91-3.75,4.63l4.6,6.58Zm-6.77-8.62h2.55c2.52,0,3.9-.87,3.9-2.59s-1.38-2.32-3.9-2.32h-2.55Z"/><path class="cls-1" d="M598.81,105.57l-5.9-10.18h4.17l2,3.91c.55,1.19,1.08,2.32,1.69,3.56h.11c.61-1.24,1.2-2.37,1.75-3.56l2-3.91h4.08l-5.92,10.18v5.89h-3.92Z"/><path class="cls-2" d="M40.29,23.8c1-4.36,7.79-7.86,12.65-9.31C80.91,6.15,153.08,7,153.08,7V9.64s-34.47.07-53.86,2.78C92,13.42,83.23,14.83,77,18s-12.35,6.7-12.55,12.76,2.69,11.15,7.3,15.79C78,52.8,87.7,58.89,94.52,64.71A142.66,142.66,0,0,1,105.4,75.85c8.29,10,2,19.71-.09,15.06-2.31-5-10.14-13.62-12.85-16.62-10.8-12-17-18.32-38.67-32.75C38,31,39.74,26.15,40.29,23.8Zm15.87,52a17.65,17.65,0,0,1,2.4,6.59C61,94.73,54.67,110,45.8,120.12s-20.32,17.72-32.1,25.54l-.07,0a93.11,93.11,0,0,1-9.45,3.66.44.44,0,0,0,.13.86H18.88a.45.45,0,0,0,.2,0,128.77,128.77,0,0,0,30-20.24c5.1-4.49,11.39-11.21,14.75-16.72C69,104.78,72.17,96.58,70,87.3Zm71.64,37.53c0-14.06-6.93-31.37-16.83-43.1C106.26,64.59,95.8,56,87.23,48.51a.44.44,0,0,0-.67.56,49.23,49.23,0,0,0,2.71,4.55c9.64,8.32,23.06,21.16,24.72,29.64a14.18,14.18,0,0,1-1.08,8.11c-.85,1.68-4.38,3.49-6.56,3a.42.42,0,0,0-.52.46c1.7,20.3-6.24,38.93-21.84,54.61-.28.28-.09.91.31.91h17.87S127.8,145.76,127.8,113.28ZM29,32.45S25,29.19,25.12,24.63c.28-15.79,36.31-19,36.81-19h0c1.72-.19,6.13-1,7.43-2s.15-1-2.22-1.08c-6.92.36-21,1.71-27.59,2.54-6.23.78-19.44,1.06-29.85,8C.39,19.39,0,28.2,0,32.45c0,4,17.6,13,19.86,14.32A98.28,98.28,0,0,1,29,53ZM70.13,5.18c22.64-3,83-1.92,83-1.92V.17S99.61-.75,75.6,1.72c-.19,0-.5.82-1.63,1.33a7.47,7.47,0,0,1-2,.69C70.45,4.14,69.31,5.29,70.13,5.18Zm45.62,7.62c-5.8.44-22.53,1.1-32.53,5.66C70.4,24.31,69.77,28.36,71,33.72c1.15,5,8,12.38,15.34,17.85.39.3-3.15-4.87-3.43-5.27-3.06-4.53-7.88-10.23-4-16.84C83.65,21.34,95.34,18,112.73,15.82c1.41-.18,4.24-.37,5.65-.45,11.8-.67,34.7-1.32,34.7-1.32V11.66s-26.48.49-29.71.67C121.46,12.44,117.65,12.65,115.75,12.8ZM47.8,150.21c18.58-17.71,22.3-29.62,24.84-38.82,3-11-.66-1.92-5.16,4.19-4.74,6.44-7.52,10-10,12-15.63,13-27.1,22.61-27.1,22.61H47.8Z"/><path class="cls-3" d="M122.52,53,75.7,92.13l-46.56-39V32.6L75.7,72.07l46.82-39.33ZM23.88,127.76V32.6H.16V150.37H27.62l27.09-22.61H23.88Zm104-95.16V113c0,32.47-25.5,37.34-25.5,37.34h50.9V32.6Z"/><polygon class="cls-4" points="23.88 127.6 23.88 32.45 0.16 32.45 0.16 127.6 0.16 150.21 30.52 150.21 57.63 127.6 29.14 127.6 23.88 127.6"/><path class="cls-5" d="M126.93,112.87"/></svg>